HIERARCHY
ROOT root
{
	OFFSET 0.000000 0.000000 0.000000
	CHANNELS 6 Xposition Yposition Zposition Zrotation Yrotation Xrotation
	JOINT lhip
	{
		OFFSET 0.058581 -0.082280 -0.017664
		CHANNELS 3 Zrotation Yrotation Xrotation
		JOINT lknee
		{
			OFFSET 0.043451 -0.386469 0.008037
			CHANNELS 3 Zrotation Yrotation Xrotation
			JOINT lankle
			{
				OFFSET -0.014790 -0.426874 -0.037428
				CHANNELS 3 Zrotation Yrotation Xrotation
				JOINT ltoe
				{
					OFFSET 0.041054 -0.060286 0.122042
					CHANNELS 3 Zrotation Yrotation Xrotation
					End Site
					{
						OFFSET 0.000000 0.000000 0.000000
					}
				}
			}
		}
	}
	JOINT rhip
	{
		OFFSET -0.060310 -0.090513 -0.013543
		CHANNELS 3 Zrotation Yrotation Xrotation
		JOINT rknee
		{
			OFFSET -0.043257 -0.383688 -0.004843
			CHANNELS 3 Zrotation Yrotation Xrotation
			JOINT rankle
			{
				OFFSET 0.019056 -0.420046 -0.034562
				CHANNELS 3 Zrotation Yrotation Xrotation
				JOINT rtoe
				{
					OFFSET -0.034840 -0.062106 0.130323
					CHANNELS 3 Zrotation Yrotation Xrotation
					End Site
					{
						OFFSET 0.000000 0.000000 0.000000
					}
				}
			}
		}
	}
	JOINT lowerback
	{
		OFFSET 0.004439 0.124404 -0.038385
		CHANNELS 3 Zrotation Yrotation Xrotation
		JOINT upperback
		{
			OFFSET 0.004488 0.137956 0.026820
			CHANNELS 3 Zrotation Yrotation Xrotation
			JOINT chest
			{
				OFFSET -0.002265 0.056032 0.002855
				CHANNELS 3 Zrotation Yrotation Xrotation
				JOINT lowerneck
				{
					OFFSET -0.013390 0.211636 -0.033468
					CHANNELS 3 Zrotation Yrotation Xrotation
					JOINT upperneck
					{
						OFFSET 0.010113 0.088937 0.050410
						CHANNELS 3 Zrotation Yrotation Xrotation
						End Site
						{
							OFFSET 0.000000 0.000000 0.000000
						}
					}
				}
				JOINT lclavicle
				{
					OFFSET 0.071702 0.114000 -0.018898
					CHANNELS 3 Zrotation Yrotation Xrotation
					JOINT lshoulder
					{
						OFFSET 0.122921 0.045205 -0.019046
						CHANNELS 3 Zrotation Yrotation Xrotation
						JOINT lelbow
						{
							OFFSET 0.255332 -0.015649 -0.022946
							CHANNELS 3 Zrotation Yrotation Xrotation
							JOINT lwrist
							{
								OFFSET 0.265709 0.012698 -0.007375
								CHANNELS 3 Zrotation Yrotation Xrotation
								End Site
								{
									OFFSET 0.000000 0.000000 0.000000
								}
							}
						}
					}
				}
				JOINT rclavicle
				{
					OFFSET -0.082954 0.112472 -0.023707
					CHANNELS 3 Zrotation Yrotation Xrotation
					JOINT rshoulder
					{
						OFFSET -0.113228 0.046853 -0.008472
						CHANNELS 3 Zrotation Yrotation Xrotation
						JOINT relbow
						{
							OFFSET -0.260127 -0.014369 -0.031269
							CHANNELS 3 Zrotation Yrotation Xrotation
							JOINT rwrist
							{
								OFFSET -0.269108 0.006794 -0.006027
								CHANNELS 3 Zrotation Yrotation Xrotation
								End Site
								{
									OFFSET 0.000000 0.000000 0.000000
								}
							}
						}
					}
				}
			}
		}
	}
}
MOTION
Frames: 6
Frame Time: 0.033333
0.378567 0.158515 1.010952 85.100447 0.020856 89.101632 5.972604 4.530317 5.256788 -2.980988 -1.269069 -2.088193 0.235874 10.451152 -4.919353 0.000000 -0.000000 0.000000 -7.733170 -2.739142 -1.011239 2.100567 0.614203 4.685148 6.259414 -4.401227 -7.043174 0.000000 -0.000000 0.000000 -4.632518 3.577597 -4.167525 1.851450 -0.835106 11.293878 0.780187 -0.737237 -4.294089 3.981342 5.565719 2.106822 5.047556 -1.300555 -4.744504 -23.631330 -0.958058 -1.203122 -58.992738 -7.562016 16.015976 3.388357 -19.389461 6.025788 -11.001869 -17.438264 8.034791 25.775525 5.723894 7.872430 56.405382 8.338476 15.566475 -12.947466 18.474687 -7.342092 9.486820 11.343651 1.213577 
0.378421 0.158528 1.010968 85.111458 0.016990 88.959581 5.933384 4.422292 5.409445 -2.933433 -1.272420 -2.128419 0.317149 10.449087 -4.892773 0.000000 -0.000000 0.000000 -7.758361 -2.701916 -0.860481 2.131394 0.640342 4.657589 6.270987 -4.418083 -7.048462 0.000000 -0.000000 0.000000 -4.551218 3.470154 -3.779863 1.698674 -0.732652 10.691011 0.862176 -0.751636 -3.901356 4.020756 5.569835 1.688526 4.953161 -1.337342 -4.279908 -23.361508 -1.036578 -1.226324 -59.327751 -7.565929 15.976073 3.582264 -19.559606 6.356586 -11.080573 -16.919802 7.586809 25.598683 5.853126 8.094470 56.671980 8.525413 15.784450 -13.253414 18.373030 -7.561801 9.785574 11.294604 1.081347 
0.378282 0.158572 1.011110 85.120580 0.017258 88.959783 5.919476 4.374213 5.413249 -2.934571 -1.240334 -2.166404 0.266238 10.474981 -4.886057 0.000000 -0.000000 0.000000 -7.749612 -2.672330 -0.875698 2.110658 0.599036 4.660493 6.300993 -4.433170 -7.035850 0.000000 -0.000000 0.000000 -4.545319 3.426472 -3.708049 1.649562 -0.743264 10.501971 0.913353 -0.726085 -3.800159 3.966582 5.547169 1.644040 5.022687 -1.342127 -4.280694 -23.282899 -1.054313 -1.179621 -59.348891 -7.622677 15.853872 3.478391 -19.383808 6.317716 -10.944013 -17.454999 7.527331 25.483380 5.925092 8.137062 56.750501 8.500061 15.772700 -13.198793 18.400353 -7.410369 9.495004 11.456787 0.932872 
0.377827 0.158916 1.011324 85.229851 0.038572 88.960197 5.913687 4.278195 5.356203 -2.921144 -1.268296 -2.156391 0.271741 10.500248 -4.878079 0.000000 -0.000000 0.000000 -7.696861 -2.693428 -0.905854 2.039311 0.573115 4.682279 6.346041 -4.503570 -7.046793 0.000000 -0.000000 0.000000 -4.504855 3.345234 -3.436582 1.600325 -0.816855 9.976825 0.964507 -0.723416 -3.584124 3.885244 5.423289 1.648685 5.120677 -1.279098 -4.240513 -23.142717 -1.126255 -1.074530 -59.475309 -7.658353 15.839795 3.566351 -19.428523 6.465571 -10.954577 -17.370120 7.291868 25.253150 5.994918 8.187728 56.873244 8.466035 15.810356 -13.180001 18.382750 -7.292712 9.528009 11.438028 0.695322 
0.377664 0.158979 1.011382 85.237203 0.070532 88.964204 5.949717 4.279642 5.332746 -2.928937 -1.249904 -2.140530 0.254192 10.472231 -4.866529 0.000000 -0.000000 0.000000 -7.658620 -2.714067 -0.943187 2.029736 0.568400 4.721394 6.351541 -4.487954 -7.073364 0.000000 -0.000000 0.000000 -4.475494 3.324638 -3.390458 1.601005 -0.836799 9.884232 0.980060 -0.721468 -3.538912 3.854679 5.417116 1.629830 5.122164 -1.282346 -4.243938 -23.093107 -1.140389 -1.060775 -59.555425 -7.689949 15.833153 3.595090 -19.417523 6.504071 -10.839101 -17.382174 7.227268 25.181207 6.003315 8.211645 56.900422 8.460898 15.809961 -13.180731 18.454172 -7.236123 9.455036 11.405177 0.587855 
0.377447 0.159246 1.011452 85.255420 0.057472 88.974244 5.916601 4.298709 5.296171 -2.933493 -1.295692 -2.129837 0.270369 10.461918 -4.819539 0.000000 -0.000000 0.000000 -7.679725 -2.710669 -0.973254 2.021250 0.549878 4.737016 6.346670 -4.500859 -7.077644 0.000000 -0.000000 0.000000 -4.455843 3.279861 -3.310971 1.582095 -0.854538 9.765120 0.976398 -0.700201 -3.516150 3.803364 5.395586 1.618500 5.161212 -1.243511 -4.236697 -23.115027 -1.178597 -1.045045 -59.517052 -7.731535 15.833640 3.653923 -19.463346 6.503077 -10.798986 -17.449929 7.175893 25.149466 6.049344 8.209365 56.889443 8.330717 15.811680 -13.263827 18.564633 -7.253290 9.435021 11.471369 0.440603 
